<svg id="Laag_1" data-name="Laag 1" xmlns="http://www.w3.org/2000/svg" viewBox="0 0 269.34 157.4"><defs><style>.cls-1{font-size:40px;font-family:Rubik-Black, Rubik;font-weight:800;}.cls-1,.cls-4{fill:#fff;}.cls-2{letter-spacing:-0.02em;}.cls-3{letter-spacing:-0.03em;}</style></defs><text class="cls-1" transform="translate(65.71 146.83)">FEN<tspan class="cls-2" x="82.12" y="0">C</tspan><tspan class="cls-3" x="110.6" y="0">Y</tspan></text><path class="cls-4" d="M180.3,217a52.4,52.4,0,0,0,10.06,2.91V192.12H180.3Z" transform="translate(-65.33 -114.84)"/><path class="cls-4" d="M161,175.2l7-13a3,3,0,0,1,5.22,0l7,13v6.85h10.06v-17l7-13a3,3,0,0,1,5.22,0l7,13v17H219.7V175.2l7-13a3,3,0,0,1,5.22,0l7,13v28.51a53,53,0,1,0-78,0Z" transform="translate(-65.33 -114.84)"/><path class="cls-4" d="M209.64,219.93A52.4,52.4,0,0,0,219.7,217v-24.9H209.64Z" transform="translate(-65.33 -114.84)"/></svg>