<svg id="Laag_1" data-name="Laag 1" xmlns="http://www.w3.org/2000/svg" viewBox="0 0 36.81 36.81"><defs><style>.cls-1{fill:#e94e1b;}.cls-2{fill:#d73f1c;}.cls-3{fill:#f49c70;}.cls-4{fill:#383432;}</style></defs><polygon class="cls-1" points="0.59 36.21 2.02 33.31 5.61 33.31 7.03 36.21 15.19 36.21 16.61 33.31 20.2 33.31 21.62 36.21 29.78 36.21 31.2 33.31 34.79 33.31 36.21 36.21 36.21 3.5 34.79 0.59 31.2 0.59 29.78 3.5 21.62 3.5 20.2 0.59 16.61 0.59 15.19 3.5 7.03 3.5 5.61 0.59 2.02 0.59 0.59 3.5 0.59 36.21"/><polygon class="cls-2" points="5.61 0.59 5.61 33.31 7.03 36.21 7.03 3.5 5.61 0.59"/><polygon class="cls-2" points="20.2 0.59 20.2 33.31 21.62 36.21 21.62 3.5 20.2 0.59"/><polygon class="cls-2" points="34.79 0.59 34.79 33.31 36.21 36.21 36.21 3.5 34.79 0.59"/><polygon class="cls-3" points="2.02 0.59 2.02 33.31 0.59 36.21 0.59 3.5 2.02 0.59"/><polygon class="cls-3" points="16.61 0.73 16.61 33.45 15.19 36.35 15.19 3.63 16.61 0.73"/><polygon class="cls-3" points="31.2 0.75 31.2 33.31 29.78 36.21 29.78 3.66 31.2 0.75"/><path class="cls-4" d="M43.34,9.83l-1.42-2.9a.6.6,0,0,0-.54-.33H37.8a.59.59,0,0,0-.53.33L36,9.5H28.59L27.33,6.93a.6.6,0,0,0-.54-.33H23.21a.6.6,0,0,0-.54.33L21.41,9.5H14L12.73,6.93a.58.58,0,0,0-.53-.33H8.62a.6.6,0,0,0-.54.33L6.66,9.83a.58.58,0,0,0-.06.26V42.81a.59.59,0,0,0,.46.58h.13a.58.58,0,0,0,.53-.33L9,40.5h2.84l1.26,2.57a.6.6,0,0,0,.54.33h8.15a.59.59,0,0,0,.53-.33l1.27-2.57h2.84l1.27,2.57a.59.59,0,0,0,.53.33h8.15a.6.6,0,0,0,.54-.33l1.26-2.57H41l1.27,2.57a.59.59,0,0,0,1.12-.26V10.09A.58.58,0,0,0,43.34,9.83ZM42.22,40.25l-.3-.6a.6.6,0,0,0-.54-.34H37.8a.58.58,0,0,0-.53.34l-.3.6V22H35.78V42.22h-7V27.66H27.63V40.25l-.3-.6a.6.6,0,0,0-.54-.34H23.21a.6.6,0,0,0-.54.34l-.29.6V23.1H21.19V42.22h-7V30.15H13v10.1l-.3-.6a.57.57,0,0,0-.53-.34H8.62a.6.6,0,0,0-.54.34l-.3.6v-30L9,7.78h2.84L13,10.23V27.66h1.19v-17h7v5.1h1.19V10.23l1.2-2.45h2.84l1.21,2.45V25h1.18V10.69h7v8.87H37V10.23l1.2-2.45H41l1.21,2.45Z" transform="translate(-6.6 -6.6)"/><rect class="cls-4" x="14.59" y="11.04" width="1.19" height="3.32"/></svg>