<svg id="Laag_1" data-name="Laag 1" xmlns="http://www.w3.org/2000/svg" viewBox="0 0 36.81 36.81"><defs><style>.cls-1{fill:#95c11f;}.cls-2{fill:#bbd034;}.cls-3{fill:#7daf23;}.cls-4{fill:#383432;}</style></defs><polyline class="cls-1" points="36.21 18.4 36.21 0.59 27.31 0.59 9.5 0.59 0.59 0.59 0.59 18.4"/><polygon class="cls-1" points="0.59 18.4 0.59 36.21 18.41 36.21 36.21 36.21 36.21 18.4 27.31 18.4 18.41 18.4 9.5 18.4 0.59 18.4"/><polyline class="cls-1" points="9.5 0.51 9.5 0.59 9.5 18.4"/><polyline class="cls-1" points="27.31 0.51 27.31 0.59 27.31 18.4"/><polyline class="cls-1" points="18.41 18.36 18.41 18.4 18.41 36.21 18.41 36.25"/><rect class="cls-2" x="0.65" y="0.59" width="2.25" height="35.66"/><rect class="cls-3" x="32.67" y="0.59" width="3.47" height="35.66"/><rect class="cls-2" x="18.4" y="18.36" width="1.91" height="17.89"/><rect class="cls-2" x="9.5" y="0.66" width="1.91" height="17.89"/><path class="cls-4" d="M42.81,6.6H7.19a.58.58,0,0,0-.59.59V42.81a.58.58,0,0,0,.59.59H42.81a.58.58,0,0,0,.59-.59V7.19A.58.58,0,0,0,42.81,6.6Zm-.59,17.81H34.5V7.78h7.72Zm-25.53,0V7.78H33.31V24.41ZM15.51,7.78V24.41H7.78V7.78ZM7.78,25.59H24.41V42.22H7.78ZM42.22,42.22H25.6V25.59H42.22Z" transform="translate(-6.6 -6.6)"/></svg>