<svg id="Laag_1" data-name="Laag 1" xmlns="http://www.w3.org/2000/svg" viewBox="0 0 36.81 36.81"><defs><style>.cls-1{fill:#dadada;}.cls-2{fill:#c6c6c6;}.cls-3{fill:#f6f6f6;}.cls-4{fill:#383432;}</style></defs><path class="cls-1" d="M42.81,42.81V9.56c-2.23,0-2.23-2.37-4.45-2.37s-2.23,2.37-4.45,2.37-2.23-2.37-4.45-2.37S27.23,9.56,25,9.56s-2.22-2.37-4.45-2.37S18.33,9.56,16.1,9.56s-2.23-2.37-4.46-2.37S9.42,9.56,7.19,9.56V42.81c2.23,0,2.23-2.37,4.45-2.37s2.23,2.37,4.46,2.37,2.23-2.37,4.45-2.37,2.23,2.37,4.45,2.37,2.23-2.37,4.46-2.37,2.22,2.37,4.45,2.37,2.22-2.37,4.45-2.37S40.58,42.81,42.81,42.81Z" transform="translate(-6.6 -6.6)"/><polygon class="cls-2" points="31.76 0.59 31.76 33.63 33.58 34.61 33.58 1.51 31.76 0.59"/><polygon class="cls-2" points="22.92 0.59 22.92 33.63 24.74 34.61 24.74 1.51 22.92 0.59"/><polygon class="cls-2" points="14.08 0.59 14.08 33.63 15.9 34.61 15.9 1.51 14.08 0.59"/><polygon class="cls-2" points="5.25 0.59 5.25 33.63 7.07 34.61 7.07 1.51 5.25 0.59"/><polygon class="cls-3" points="0.59 2.97 0.59 36.21 3.03 34.73 3.03 1.48 0.59 2.97"/><path class="cls-4" d="M42.81,9A2.26,2.26,0,0,1,41,8,3.27,3.27,0,0,0,35.7,8a2.11,2.11,0,0,1-3.59,0A3.26,3.26,0,0,0,26.8,8a2.11,2.11,0,0,1-3.59,0,3.27,3.27,0,0,0-5.32,0A2.26,2.26,0,0,1,16.1,9a2.3,2.3,0,0,1-1.8-1A3.4,3.4,0,0,0,11.64,6.6,3.44,3.44,0,0,0,9,8,2.26,2.26,0,0,1,7.19,9a.59.59,0,0,0-.59.59V42.81a.58.58,0,0,0,.59.59A3.42,3.42,0,0,0,9.85,42a2.28,2.28,0,0,1,1.79-1,2.3,2.3,0,0,1,1.8,1A3.42,3.42,0,0,0,16.1,43.4,3.44,3.44,0,0,0,18.76,42a2.1,2.1,0,0,1,3.58,0,3.27,3.27,0,0,0,5.32,0,2.11,2.11,0,0,1,3.59,0,3.27,3.27,0,0,0,5.32,0,2.1,2.1,0,0,1,3.58,0,3.44,3.44,0,0,0,2.66,1.37.58.58,0,0,0,.59-.59V9.56A.59.59,0,0,0,42.81,9Zm-.59,33.16a2.81,2.81,0,0,1-1.2-.91,3.25,3.25,0,0,0-5.32,0,2.71,2.71,0,0,1-1.33.94V33.69H33.18v8.39a3.3,3.3,0,0,1-1.07-.86,3.24,3.24,0,0,0-5.31,0,2.9,2.9,0,0,1-1.21.91V28.58H24.41V42.13a3,3,0,0,1-1.2-.91,3.25,3.25,0,0,0-5.32,0,3.18,3.18,0,0,1-1.1.87V23H15.6V42.15a2.77,2.77,0,0,1-1.3-.93,3.38,3.38,0,0,0-2.66-1.38A3.41,3.41,0,0,0,9,41.22a2.81,2.81,0,0,1-1.2.91v-32A3.73,3.73,0,0,0,9.85,8.78a2.28,2.28,0,0,1,1.79-1,2.3,2.3,0,0,1,1.8,1,3.61,3.61,0,0,0,2.16,1.34V21.06h1.19v-11a3.82,3.82,0,0,0,2-1.3,2.1,2.1,0,0,1,3.58,0,3.7,3.7,0,0,0,2.07,1.32v11h1.18v-11a3.63,3.63,0,0,0,2.07-1.32,2.11,2.11,0,0,1,3.59,0,3.73,3.73,0,0,0,1.93,1.29V31.72h1.19V10.13a3.65,3.65,0,0,0,2.2-1.35,2.1,2.1,0,0,1,3.58,0,3.73,3.73,0,0,0,2.07,1.33Z" transform="translate(-6.6 -6.6)"/><rect class="cls-4" x="17.81" y="16.44" width="1.19" height="3.33"/></svg>