<svg id="Laag_1" data-name="Laag 1" xmlns="http://www.w3.org/2000/svg" viewBox="0 0 36.81 36.81"><defs><style>.cls-1{fill:#b17f4a;}.cls-2{fill:#ca9e67;}.cls-3{fill:#936037;}.cls-4{fill:#383432;}</style></defs><polygon class="cls-1" points="0.59 0.59 0.59 32.1 29.37 32.1 29.37 33.93 32.58 33.93 32.58 32.1 36.21 32.1 36.21 0.59 32.58 0.59 32.58 2.43 29.37 2.43 29.37 0.59 0.59 0.59"/><polygon class="cls-2" points="29.37 32.1 29.37 33.93 32.58 33.93 32.58 32.1 36.21 32.1 36.21 36.21 6.96 36.21 6.96 34.41 3.79 34.41 3.79 36.21 0.59 36.21 0.59 32.1 29.37 32.1"/><rect class="cls-2" x="0.59" y="0.59" width="2.65" height="31.51"/><rect class="cls-3" x="29.37" y="2.43" width="3.21" height="31.51"/><path class="cls-4" d="M42.81,7.38H39.18a.59.59,0,0,0-.59.6V9.22h-2V8a.6.6,0,0,0-.59-.6H7.19A.59.59,0,0,0,6.6,8V43.6a.58.58,0,0,0,.59.59h3.2A.58.58,0,0,0,11,43.6V42.39h2V43.6a.59.59,0,0,0,.59.59H42.81a.58.58,0,0,0,.59-.59V8A.59.59,0,0,0,42.81,7.38Zm-35,1.19H35.37V27h1.19V10.4h2v7h1.18V8.57h2.45V38.89H39.77v-20H38.59V40.72h-2V29.2H35.37v9.69H7.78ZM42.22,43H14.15V41.79a.59.59,0,0,0-.6-.59H10.39a.58.58,0,0,0-.59.59V43h-2V40.08H35.37v1.24a.59.59,0,0,0,.6.59h3.21a.58.58,0,0,0,.59-.59V40.08h2.45Z" transform="translate(-6.6 -7.38)"/></svg>